Coordinates
version=1
nRows=17
nColumns=24
inDegrees=yes

Units are S.I. units (second, meters, Newtons, ...)
Angles are in degrees.

endheader
time	pelvis_tilt	pelvis_list	pelvis_rotation	pelvis_tx	pelvis_ty	pelvis_tz	hip_flexion_r	hip_adduction_r	hip_rotation_r	knee_angle_r	ankle_angle_r	subtalar_angle_r	mtp_angle_r	hip_flexion_l	hip_adduction_l	hip_rotation_l	knee_angle_l	ankle_angle_l	subtalar_angle_l	mtp_angle_l	lumbar_extension	lumbar_bending	lumbar_rotation
      0.95816667	      2.05496340	      1.75585162	     -2.30494607	     -0.17669968	      1.01045828	      0.26486147	    -13.65568347	      1.92567862	      1.49313427	     -8.13689427	     12.71170875	    -13.01155504	      5.91944801	     18.41903231	      1.67729963	     -5.60081280	     -2.88308731	      0.87471497	     -8.00724988	      4.50832260	     -5.14717829	     -1.68339935	     11.31028303
      0.96233333	      2.09357432	      1.78385165	     -2.33079980	     -0.17094275	      1.00998322	      0.26447504	    -13.76975064	      1.86266007	      1.45423504	     -8.70916797	     12.88402375	    -12.95827119	      5.82473179	     18.24225286	      1.78038742	     -5.45421371	     -2.61362775	      0.88666183	     -8.06056378	      4.57422222	     -5.14402823	     -1.71868044	     11.31650360
      0.96650000	      2.16602472	      1.82424993	     -2.34095914	     -0.16519005	      1.00958795	      0.26406971	    -13.90254604	      1.78691861	      1.38432550	     -9.31777146	     13.03063714	    -12.87401072	      5.73679838	     18.03913939	      1.90236137	     -5.24841265	     -2.44252929	      0.87749834	     -8.14120101	      4.64915805	     -5.19210009	     -1.79026317	     11.32177535
      0.97066667	      2.20713806	      1.86911569	     -2.35221625	     -0.15938651	      1.00919297	      0.26364595	    -13.97555884	      1.70228625	      1.28571516	     -9.98116978	     13.15985603	    -12.76744589	      5.65008563	     17.87349160	      2.02867654	     -5.01816678	     -2.36118162	      0.83953926	     -8.27991406	      4.74292255	     -5.18136000	     -1.84999725	     11.32477273
      0.97483333	      2.25299925	      1.92099782	     -2.35929835	     -0.15358068	      1.00883609	      0.26321210	    -14.03326534	      1.60915375	      1.19091407	    -10.68452122	     13.26516899	    -12.65252474	      5.57768513	     17.71278224	      2.16351722	     -4.75403782	     -2.37153732	      0.78325632	     -8.43327996	      4.85042523	     -5.18540523	     -1.93030755	     11.32154150
      0.97900000	      2.29436991	      1.98434511	     -2.36621689	     -0.14775090	      1.00852055	      0.26277483	    -14.06260674	      1.50090997	      1.08282032	    -11.43524900	     13.34341651	    -12.52661334	      5.52466603	     17.56394529	      2.30917648	     -4.47278995	     -2.46488602	      0.69572973	     -8.61491650	      4.97056210	     -5.17888806	     -2.01999292	     11.31643405
      0.98316667	      2.34776324	      2.05482121	     -2.36879691	     -0.14190473	      1.00824947	      0.26232732	    -14.08369926	      1.38361138	      0.97149412	    -12.22957626	     13.40216356	    -12.39214194	      5.49843317	     17.40879329	      2.46433541	     -4.16994086	     -2.63401021	      0.59806639	     -8.80349088	      5.09245610	     -5.18836806	     -2.12556662	     11.30818836
      0.98733333	      2.37378605	      2.12122594	     -2.36871358	     -0.13604404	      1.00797854	      0.26185446	    -14.04303162	      1.26632680	      0.83558850	    -13.08625339	     13.41794287	    -12.23763953	      5.49753411	     17.29310014	      2.61486152	     -3.85476212	     -2.87741464	      0.46799490	     -9.02893715	      5.22878298	     -5.15643998	     -2.21631837	     11.29141043
      0.99150000	      2.40866190	      2.19533500	     -2.36575544	     -0.13016772	      1.00774785	      0.26137760	    -13.98794026	      1.13898388	      0.69485792	    -13.98960078	     13.41120575	    -12.07682546	      5.52510890	     17.17288097	      2.77423225	     -3.52835916	     -3.18030941	      0.32437189	     -9.26250595	      5.36959732	     -5.13615330	     -2.32309750	     11.27269831
      0.99566667	      2.44945467	      2.27708134	     -2.36101532	     -0.12427781	      1.00756299	      0.26088409	    -13.91003860	      0.99843407	      0.53625117	    -14.94913081	     13.37012949	    -11.89307008	      5.58478494	     17.05109159	      2.94289842	     -3.19977866	     -3.53407154	      0.15658378	     -9.51225491	      5.51805507	     -5.12024222	     -2.43849274	     11.24987406
      0.99983333	      2.49933384	      2.36848428	     -2.35750680	     -0.11838042	      1.00742600	      0.26038443	    -13.81109339	      0.84207498	      0.36564179	    -15.96620073	     13.29456333	    -11.69978111	      5.67668512	     16.92236674	      3.12124972	     -2.87748316	     -3.92811505	     -0.02656561	     -9.76690338	      5.66788282	     -5.11279830	     -2.56692230	     11.22411449
      1.00400000	      2.50677588	      2.44637228	     -2.34954783	     -0.11248154	      1.00725833	      0.25986588	    -13.63306272	      0.69928393	      0.19846019	    -17.04378985	     13.16528526	    -11.51120826	      5.80424316	     16.85429024	      3.28298245	     -2.56118628	     -4.38153050	     -0.21838079	    -10.02753788	      5.82188522	     -5.05578171	     -2.67426865	     11.19319259
      1.00816667	      2.57140433	      2.54777826	     -2.34327378	     -0.10656916	      1.00719889	      0.25933943	    -13.48632354	      0.52092067	     -0.00303950	    -18.17743994	     13.01067530	    -11.28379969	      5.97282810	     16.71843132	      3.47155781	     -2.26575752	     -4.84544194	     -0.42235442	    -10.28695817	      5.97986211	     -5.06374324	     -2.81647813	     11.15637510
      1.01233333	      2.57936556	      2.62264525	     -2.32660357	     -0.10068596	      1.00708817	      0.25878864	    -13.24461727	      0.37283258	     -0.18864837	    -19.36636009	     12.79197287	    -11.07072373	      6.22053656	     16.66982551	      3.62926738	     -1.98069874	     -5.37982165	     -0.65011884	    -10.57216340	      6.16728643	     -5.01829466	     -2.91870520	     11.11442663
      1.01650000	      2.61147359	      2.71707983	     -2.31502691	     -0.09477053	      1.00703857	      0.25825430	    -13.00252913	      0.20005973	     -0.36922452	    -20.59420355	     12.43234057	    -11.03378665	     10.39387561	     16.57323110	      3.80679584	     -1.68788702	     -5.88281921	     -0.89312476	    -10.91640635	      8.79740566	     -4.98157347	     -3.05547210	     11.06568320
      1.02066667	      2.67779281	      2.82531436	     -2.30862572	     -0.08885977	      1.00706422	      0.25769812	    -12.75177627	     -0.00776462	     -0.61486124	    -21.90858995	     12.13438372	    -10.74090260	     10.44467111	     16.45867201	      3.98995998	     -1.52321261	     -6.44050629	     -1.05747778	    -11.00659181	      8.81326755	     -4.99163174	     -3.20388263	     11.01959037
      1.02483333	      2.70504676	      2.92264082	     -2.29621110	     -0.08296942	      1.00705988	      0.25713187	    -12.42421111	     -0.20173163	     -0.83515903	    -23.27850088	     11.77097531	    -10.52338247	     10.53665340	     16.38720556	      4.16153223	     -1.32986797	     -7.00848849	     -1.22777082	    -11.18323925	      8.82908909	     -4.95362086	     -3.33892391	     10.96303770
